# xmcd
#
# Track frame offsets: 
#        150
#        23165
#        43210
#        63645
#        84115
#        106252
#        124230
#        143875
#        158935
#        173125
#        188545
#        207700
#        233402
#        244530
#
# Disc length: 3545 seconds
#
# Revision: 4
# Processed by: cddbd v1.5.2PL0 Copyright (c) Steve Scherf et al.
# Submitted via: ExactAudioCopyFreeDBPlugin 1.0
#
DISCID=b80dd70e
DTITLE=XRCD2 - Best Audiophile Voices
DYEAR=2003
DGENRE=Pop
TTITLE0=Eva Cassidy - What a Wonderful World
TTITLE1=Alison Krauss - It Wouldn't Have Made A Difference
TTITLE2=Stacey Kent and Jim Tomlinson - So Nice
TTITLE3=Carol Kidd - When I Dream
TTITLE4=Jheena Lodwick - Perhaps Love
TTITLE5=Dave's True Story - Marisa
TTITLE6=Tish Hinojosa - Song For The Journey
TTITLE7=Cheryl Wheeler - Sylvia Hotel
TTITLE8=Selena Jones - You Light Up My Life
TTITLE9=Eva Cassidy - Ain't No Sunshine
TTITLE10=Jeanette Lindstrom and Steve Dobrogosz - The Look of Love
TTITLE11=Karrin Allyson - Too Young To Go Steady
TTITLE12=Monica Mancini - Skylark
TTITLE13=Nnenna Freelon - Overjoyed
EXTD=
EXTT0=
EXTT1=
EXTT2=
EXTT3=
EXTT4=
EXTT5=
EXTT6=
EXTT7=
EXTT8=
EXTT9=
EXTT10=
EXTT11=
EXTT12=
EXTT13=
PLAYORDER=
